<svg width="24" height="24" viewBox="0 0 24 24" fill="none" xmlns="http://www.w3.org/2000/svg">
<rect x="0.35" y="0.35" width="23.3" height="23.3" rx="1.65" stroke="#9F9E9E" stroke-width="0.7"/>
<path d="M10.2827 16.1911L6.38346 12.3137C6.36097 12.2914 6.34312 12.2648 6.33095 12.2355C6.31877 12.2062 6.3125 12.1748 6.3125 12.1431C6.3125 12.1114 6.31877 12.08 6.33095 12.0507C6.34312 12.0214 6.36097 11.9948 6.38346 11.9725L7.36783 10.987C7.46189 10.8929 7.61392 10.8929 7.70799 10.987L10.275 13.5387C10.3691 13.6328 10.5222 13.6317 10.6163 13.5376L16.2885 7.81076C16.3825 7.71561 16.5356 7.71561 16.6308 7.80967L17.6163 8.79514C17.7103 8.8892 17.7103 9.04123 17.6174 9.13529L11.4377 15.3708L11.4388 15.3719L10.6239 16.1911C10.5299 16.2851 10.3767 16.2851 10.2827 16.1911Z" fill="#585757"/>
</svg>
