<svg width="12" height="12" viewBox="0 0 12 12" fill="none" xmlns="http://www.w3.org/2000/svg">
<path d="M2.51252 9.8243C2.49539 9.89324 2.49508 9.96492 2.51162 10.034C2.52816 10.103 2.56111 10.1677 2.60801 10.2231C2.65491 10.2784 2.71454 10.3231 2.78243 10.3538C2.85032 10.3844 2.92471 10.4002 3.00002 10.4C3.09879 10.4 3.19535 10.3725 3.27753 10.321L6.00004 8.61511L8.72256 10.321C8.80773 10.3742 8.90817 10.4016 9.01038 10.3994C9.11258 10.3973 9.21165 10.3659 9.29426 10.3093C9.37687 10.2527 9.43905 10.1736 9.47245 10.0828C9.50584 9.992 9.50885 9.89375 9.48106 9.80128L8.56656 6.79357L10.8346 4.87522C10.9072 4.81375 10.9591 4.73361 10.9838 4.64472C11.0085 4.55582 11.0049 4.46208 10.9735 4.37507C10.9421 4.28806 10.8843 4.21161 10.8072 4.15517C10.73 4.09873 10.637 4.06477 10.5396 4.0575L7.68905 3.84414L6.45554 1.27773C6.41626 1.19507 6.35236 1.12486 6.27157 1.07558C6.19077 1.0263 6.09652 1.00005 6.0002 1C5.90388 0.99995 5.80961 1.0261 5.72875 1.0753C5.6479 1.1245 5.58392 1.19464 5.54454 1.27726L4.31103 3.84414L1.46052 4.05703C1.36474 4.06416 1.27318 4.09708 1.19679 4.15184C1.1204 4.2066 1.06241 4.28088 1.02976 4.36581C0.99711 4.45073 0.991182 4.5427 1.01269 4.63071C1.03419 4.71872 1.08221 4.79904 1.15101 4.86206L3.25803 6.79216L2.51252 9.8243ZM6.00004 2.6124L7.02105 4.73706L7.31505 4.75914H7.31555L9.30156 4.90718L7.66605 6.29072L7.66555 6.29166L7.43405 6.48716L7.51955 6.76773V6.76914L8.14605 8.82988L6.00004 7.48534V2.6124Z" fill="#FFD168"/>
</svg>
